<?xml version="1.0" encoding="UTF-8" standalone="no"?>
<svg
   xmlns:dc="http://purl.org/dc/elements/1.1/"
   xmlns:cc="http://creativecommons.org/ns#"
   xmlns:rdf="http://www.w3.org/1999/02/22-rdf-syntax-ns#"
   xmlns:svg="http://www.w3.org/2000/svg"
   xmlns="http://www.w3.org/2000/svg"
   xml:space="preserve"
   viewBox="0 0 500 500"
   version="1.1"
   id="Layer_1"
   enable-background="new 0 0 500 500"><metadata
     id="metadata1510"><rdf:RDF><cc:Work
         rdf:about=""><dc:format>image/svg+xml</dc:format><dc:type
           rdf:resource="http://purl.org/dc/dcmitype/StillImage" /><dc:title></dc:title></cc:Work></rdf:RDF></metadata><defs
     id="defs1508" /><path
     d="m 470.35265,121.97988 c -15.291,-29.281001 -38.339,-51.747001 -65.118,-66.125001 -2.079,-1.116 -3.833,1.767 -1.938,3.186 16.217,12.149 30.002,28.263 39.758,47.836001 30.327,60.845 10.269,134.866 -46.08,169.597 -52.65,32.451 -146.073,33.527 -187.233,-8.817 -12.382,-12.739 -31.595,-15.739 -46.893,-7.594 l -38.409,20.515 c -5.788,-4.572 -14.98,-6.056 -22.66401,-1.965 l -80.506996,44.175 c -9.979,5.313 -13.735,17.292 -8.422,27.271 l 11.036,20.727 c 5.313,9.979 17.57,13.967 27.549,8.654 l 80.506006,-44.175 c 7.186,-3.826 11.256,-11.096 10.993,-18.609 l 16.029,-8.599 c 15.032,-8.003 33.586,-5.466 46.019,6.777 167.9395,85.69443 330.01501,-49.56221 265.374,-192.854 z"
     id="path1497"
     style="fill:#373430;fill-opacity:1" /></svg>