<?xml version="1.0" encoding="UTF-8" standalone="no"?>
<svg
   xmlns:dc="http://purl.org/dc/elements/1.1/"
   xmlns:cc="http://creativecommons.org/ns#"
   xmlns:rdf="http://www.w3.org/1999/02/22-rdf-syntax-ns#"
   xmlns:svg="http://www.w3.org/2000/svg"
   xmlns="http://www.w3.org/2000/svg"
   xml:space="preserve"
   viewBox="0 0 500 500"
   version="1.1"
   id="Layer_1"
   enable-background="new 0 0 500 500"><metadata
     id="metadata1510"><rdf:RDF><cc:Work
         rdf:about=""><dc:format>image/svg+xml</dc:format><dc:type
           rdf:resource="http://purl.org/dc/dcmitype/StillImage" /><dc:title></dc:title></cc:Work></rdf:RDF></metadata><defs
     id="defs1508" /><path
     d="m 309.98449,293.41622 c 0.958,1.738 2.565,3.026 4.471,3.582 l 40.642,11.847 89.63454,166.87619 c 7.86763,1.22529 19.74254,3.28289 23.43854,-0.15911 l -99.36208,-172.91508 12.276,-42.667 c 0.549,-1.907 0.318,-3.954 -0.639,-5.692 l -93.766,-170.213005 c -1.998,-3.628 -6.56,-4.948 -10.188,-2.951 -3.628,1.999 -4.948,6.56 -2.95,10.188 l 22.661,41.135005 -2.497,9.696 -38.486,-69.862005 c -1.997,-3.627 -6.56,-4.948 -10.188,-2.951 -3.628,1.999 -4.948,6.56 -2.95,10.188 l 46.169,83.810005 -1.628,6.323 -4.327,-1.394 -46.866,-85.074005 c -1.997,-3.628 -6.56,-4.948 -10.188,-2.951 -3.628,1.999 -4.948,6.56 -2.95,10.188 l 39.183,71.127005 -8.519,-2.745 -23.73,-43.077 c -1.998,-3.628 -6.56,-4.948 -10.188,-2.951 -3.628,1.999 -4.948,6.56 -2.95,10.188 z m 43.898,-56.263 11.93,21.657 -7.257,25.223 -11.411,-20.715 z m -32.254,46.312 -10.993,-19.955 23.695,7.635 10.515,19.087 z m 9.043,-88.446 12.656,22.975 -6.739,26.165 -12.656,-22.975 z m -30.592,49.329 -12.655,-22.973 23.695,7.635 12.655,22.973 z m 6.677,-92.741 13.36,24.252 -6.739,26.165 -13.36,-24.251 z m -19.552,33.991 13.359,24.251 -23.695,-7.635 -13.359,-24.25 z"
     id="path1499"
     style="fill:#a05a2c;fill-opacity:1" /><path
     d="m 164.76831,324.41711 c 1.276,2.317 3.42,4.035 5.96,4.775 l 55.877,16.287 74.56464,133.5211 c 8.17466,4.39663 15.424,4.09197 23.213,3.86697 l -79.47464,-145.61107 16.876,-58.656 c 0.731,-2.543 0.426,-5.272 -0.852,-7.59 L 132.28531,37.478107 c -2.666,-4.837 -8.746,-6.598 -13.584,-3.934 -4.837,2.665 -6.599,8.747 -3.934,13.584 l 31.146,56.539003 -3.637,14.122 -53.155001,-96.491003 c -2.665999,-4.837 -8.745999,-6.597 -13.583999,-3.934 -4.837,2.665 -6.599,8.747 -3.934,13.584 l 63.399,115.087003 -2.34,9.086 -6.339,-2.043 -64.355,-116.823003 c -2.665,-4.837 -8.747,-6.598 -13.584,-3.934 -4.837,2.664 -6.599,8.747 -3.934,13.584 l 54.110999,98.227003 -12.491999,-4.025 -32.614,-59.203003 c -2.666,-4.837 -8.746,-6.597 -13.584,-3.934 -4.837,2.665 -6.599,8.747 -3.934,13.584 z m -14.043,-66.941 -17.772,-32.261 33.314,10.735 17.772,32.261 z m 73.917,-10.892 16.779,30.458 -10.184,35.397 -16.051,-29.136 z m -44.35,64.564 -15.493,-28.124 33.314,10.735 14.82,26.904 z m 12.505,-122.373 17.773,32.263 -9.456,36.718 -17.772,-32.262 z m -32.811,-59.561 18.738,34.014 -9.456,36.718 -18.737,-34.014 z m -26.529,47.176 18.737,34.013 -33.314,-10.735 -18.737,-34.013 z"
     id="path1501"
     style="fill:#a05a2c;fill-opacity:1" /></svg>