<?xml version="1.0" encoding="UTF-8" standalone="no"?>
<svg
   xmlns:dc="http://purl.org/dc/elements/1.1/"
   xmlns:cc="http://creativecommons.org/ns#"
   xmlns:rdf="http://www.w3.org/1999/02/22-rdf-syntax-ns#"
   xmlns:svg="http://www.w3.org/2000/svg"
   xmlns="http://www.w3.org/2000/svg"
   xmlns:sodipodi="http://sodipodi.sourceforge.net/DTD/sodipodi-0.dtd"
   xmlns:inkscape="http://www.inkscape.org/namespaces/inkscape"
   enable-background="new 0 0 500 500"
   id="Layer_1"
   version="1.1"
   viewBox="0 0 500 500"
   xml:space="preserve"
   sodipodi:docname="harmaaniitto.svg"
   inkscape:version="0.92.3 (2405546, 2018-03-11)"><metadata
     id="metadata1510"><rdf:RDF><cc:Work
         rdf:about=""><dc:format>image/svg+xml</dc:format><dc:type
           rdf:resource="http://purl.org/dc/dcmitype/StillImage" /><dc:title></dc:title></cc:Work></rdf:RDF></metadata><defs
     id="defs1508" /><sodipodi:namedview
     pagecolor="#ffffff"
     bordercolor="#666666"
     borderopacity="1"
     objecttolerance="10"
     gridtolerance="10"
     guidetolerance="10"
     inkscape:pageopacity="0"
     inkscape:pageshadow="2"
     inkscape:window-width="1061"
     inkscape:window-height="694"
     id="namedview1506"
     showgrid="false"
     inkscape:zoom="0.472"
     inkscape:cx="190.67797"
     inkscape:cy="250"
     inkscape:window-x="641"
     inkscape:window-y="256"
     inkscape:window-maximized="0"
     inkscape:current-layer="Layer_1" /><path
     inkscape:connector-curvature="0"
     style="fill:#c8c8c8;fill-opacity:1"
     id="path1497"
     d="m 438.975,388.949 c 48.714,-45.62 62.47,-120.745 29.259,-184.342 -15.291,-29.281 -38.339,-51.747 -65.118,-66.125 -2.079,-1.116 -3.833,1.767 -1.938,3.186 16.217,12.149 30.002,28.263 39.758,47.836 30.327,60.845 10.269,134.866 -46.08,169.597 -52.65,32.451 -146.073,33.527 -187.233,-8.817 -12.382,-12.739 -31.595,-15.739 -46.893,-7.594 l -38.409,20.515 c -5.788,-4.572 -14.98,-6.056 -22.664,-1.965 L 19.15,405.415 c -9.979,5.313 -13.735,17.292 -8.422,27.271 l 11.036,20.727 c 5.313,9.979 17.57,13.967 27.549,8.654 l 80.506,-44.175 c 7.186,-3.826 11.256,-11.096 10.993,-18.609 l 16.029,-8.599 c 15.032,-8.003 33.586,-5.466 46.019,6.777 26.038,25.643 68.197,36.909 110.691,36.368 l 24.004,43.574 c 1.822,3.307 5.241,5.177 8.768,5.177 1.632,0 3.286,-0.4 4.816,-1.243 4.837,-2.665 6.599,-8.747 3.934,-13.584 L 335.65,432.494 c 26.031,-2.823 51.144,-9.984 71.616,-20.884 7.115,-3.788 13.789,-8.079 20.015,-12.799 l 42.63,77.385 c 1.366,2.48 3.931,3.883 6.576,3.883 1.224,0 2.465,-0.3 3.612,-0.932 3.628,-1.999 4.948,-6.56 2.95,-10.188 z" /><path
     inkscape:connector-curvature="0"
     style="fill:#c8c8c8;fill-opacity:1"
     id="path1499"
     d="m 330.958,290.42 c 0.958,1.738 2.565,3.026 4.471,3.582 l 40.642,11.847 15.482,28.105 c 4.16,-3.012 8.09,-6.251 11.786,-9.693 l -13.557,-24.61 12.276,-42.667 c 0.549,-1.907 0.318,-3.954 -0.639,-5.692 L 307.653,81.079 c -1.998,-3.628 -6.56,-4.948 -10.188,-2.951 -3.628,1.999 -4.948,6.56 -2.95,10.188 l 22.661,41.135 -2.497,9.696 -38.486,-69.862 c -1.997,-3.627 -6.56,-4.948 -10.188,-2.951 -3.628,1.999 -4.948,6.56 -2.95,10.188 l 46.169,83.81 -1.628,6.323 -4.327,-1.394 -46.866,-85.074 c -1.997,-3.628 -6.56,-4.948 -10.188,-2.951 -3.628,1.999 -4.948,6.56 -2.95,10.188 l 39.183,71.127 -8.519,-2.745 -23.73,-43.077 c -1.998,-3.628 -6.56,-4.948 -10.188,-2.951 -3.628,1.999 -4.948,6.56 -2.95,10.188 z m 43.898,-56.263 11.93,21.657 -7.257,25.223 -11.411,-20.715 z m -32.254,46.312 -10.993,-19.955 23.695,7.635 10.515,19.087 z m 9.043,-88.446 12.656,22.975 -6.739,26.165 -12.656,-22.975 z m -30.592,49.329 -12.655,-22.973 23.695,7.635 12.655,22.973 z m 6.677,-92.741 13.36,24.252 -6.739,26.165 -13.36,-24.251 z m -19.552,33.991 13.359,24.251 -23.695,-7.635 -13.359,-24.25 z" /><path
     inkscape:connector-curvature="0"
     style="fill:#c8c8c8;fill-opacity:1"
     id="path1501"
     d="m 202.221,322.919 c 1.276,2.317 3.42,4.035 5.96,4.775 l 55.877,16.287 9.946,18.055 c 7.645,0.689 15.424,0.914 23.213,0.689 l -14.856,-26.967 16.876,-58.656 c 0.731,-2.543 0.426,-5.272 -0.852,-7.59 L 169.738,35.98 c -2.666,-4.837 -8.746,-6.598 -13.584,-3.934 -4.837,2.665 -6.599,8.747 -3.934,13.584 l 31.146,56.539 -3.637,14.122 L 126.574,19.8 c -2.666,-4.837 -8.746,-6.597 -13.584,-3.934 -4.837,2.665 -6.599,8.747 -3.934,13.584 l 63.399,115.087 -2.34,9.086 -6.339,-2.043 L 99.421,34.757 C 96.756,29.92 90.674,28.159 85.837,30.823 81,33.487 79.238,39.57 81.903,44.407 l 54.111,98.227 -12.492,-4.025 -32.614,-59.203 c -2.666,-4.837 -8.746,-6.597 -13.584,-3.934 -4.837,2.665 -6.599,8.747 -3.934,13.584 z m -14.043,-66.941 -17.772,-32.261 33.314,10.735 17.772,32.261 z m 73.917,-10.892 16.779,30.458 -10.184,35.397 -16.051,-29.136 z m -44.35,64.564 -15.493,-28.124 33.314,10.735 14.82,26.904 z m 12.505,-122.373 17.773,32.263 -9.456,36.718 -17.772,-32.262 z m -32.811,-59.561 18.738,34.014 -9.456,36.718 -18.737,-34.014 z m -26.529,47.176 18.737,34.013 -33.314,-10.735 -18.737,-34.013 z" /></svg>