<?xml version="1.0" encoding="UTF-8" standalone="no"?>
<svg
   xmlns:dc="http://purl.org/dc/elements/1.1/"
   xmlns:cc="http://creativecommons.org/ns#"
   xmlns:rdf="http://www.w3.org/1999/02/22-rdf-syntax-ns#"
   xmlns:svg="http://www.w3.org/2000/svg"
   xmlns="http://www.w3.org/2000/svg"
   xmlns:sodipodi="http://sodipodi.sourceforge.net/DTD/sodipodi-0.dtd"
   xmlns:inkscape="http://www.inkscape.org/namespaces/inkscape"
   xml:space="preserve"
   viewBox="0 0 500 500"
   version="1.1"
   id="Layer_1"
   enable-background="new 0 0 500 500"
   sodipodi:docname="kesaniitto.svg"
   inkscape:version="0.92.3 (2405546, 2018-03-11)"><sodipodi:namedview
     pagecolor="#ffffff"
     bordercolor="#666666"
     borderopacity="1"
     objecttolerance="10"
     gridtolerance="10"
     guidetolerance="10"
     inkscape:pageopacity="0"
     inkscape:pageshadow="2"
     inkscape:window-width="999"
     inkscape:window-height="696"
     id="namedview1533"
     showgrid="false"
     inkscape:zoom="0.472"
     inkscape:cx="250"
     inkscape:cy="250"
     inkscape:window-x="401"
     inkscape:window-y="331"
     inkscape:window-maximized="0"
     inkscape:current-layer="Layer_1" /><metadata
     id="metadata1510"><rdf:RDF><cc:Work
         rdf:about=""><dc:format>image/svg+xml</dc:format><dc:type
           rdf:resource="http://purl.org/dc/dcmitype/StillImage" /><dc:title></dc:title></cc:Work></rdf:RDF></metadata><defs
     id="defs1508" /><path
     d="m 309.98449,293.41622 c 0.958,1.738 2.565,3.026 4.471,3.582 l 40.642,11.847 89.63454,166.87619 c 7.86763,1.22529 19.74254,3.28289 23.43854,-0.15911 l -99.36208,-172.91508 12.276,-42.667 c 0.549,-1.907 0.318,-3.954 -0.639,-5.692 l -93.766,-170.213005 c -1.998,-3.628 -6.56,-4.948 -10.188,-2.951 -3.628,1.999 -4.948,6.56 -2.95,10.188 l 22.661,41.135005 -2.497,9.696 -38.486,-69.862005 c -1.997,-3.627 -6.56,-4.948 -10.188,-2.951 -3.628,1.999 -4.948,6.56 -2.95,10.188 l 46.169,83.810005 -1.628,6.323 -4.327,-1.394 -46.866,-85.074005 c -1.997,-3.628 -6.56,-4.948 -10.188,-2.951 -3.628,1.999 -4.948,6.56 -2.95,10.188 l 39.183,71.127005 -8.519,-2.745 -23.73,-43.077 c -1.998,-3.628 -6.56,-4.948 -10.188,-2.951 -3.628,1.999 -4.948,6.56 -2.95,10.188 z m 43.898,-56.263 11.93,21.657 -7.257,25.223 -11.411,-20.715 z m -32.254,46.312 -10.993,-19.955 23.695,7.635 10.515,19.087 z m 9.043,-88.446 12.656,22.975 -6.739,26.165 -12.656,-22.975 z m -30.592,49.329 -12.655,-22.973 23.695,7.635 12.655,22.973 z m 6.677,-92.741 13.36,24.252 -6.739,26.165 -13.36,-24.251 z m -19.552,33.991 13.359,24.251 -23.695,-7.635 -13.359,-24.25 z"
     id="path1499"
     style="fill:#278f1a;fill-opacity:1" /><path
     d="m 164.76831,324.41711 c 1.276,2.317 3.42,4.035 5.96,4.775 l 55.877,16.287 74.56464,133.5211 c 8.17466,4.39663 15.424,4.09197 23.213,3.86697 l -79.47464,-145.61107 16.876,-58.656 c 0.731,-2.543 0.426,-5.272 -0.852,-7.59 L 132.28531,37.478107 c -2.666,-4.837 -8.746,-6.598 -13.584,-3.934 -4.837,2.665 -6.599,8.747 -3.934,13.584 l 31.146,56.539003 -3.637,14.122 -53.155001,-96.491003 c -2.665999,-4.837 -8.745999,-6.597 -13.583999,-3.934 -4.837,2.665 -6.599,8.747 -3.934,13.584 l 63.399,115.087003 -2.34,9.086 -6.339,-2.043 -64.355,-116.823003 c -2.665,-4.837 -8.747,-6.598 -13.584,-3.934 -4.837,2.664 -6.599,8.747 -3.934,13.584 l 54.110999,98.227003 -12.491999,-4.025 -32.614,-59.203003 c -2.666,-4.837 -8.746,-6.597 -13.584,-3.934 -4.837,2.665 -6.599,8.747 -3.934,13.584 z m -14.043,-66.941 -17.772,-32.261 33.314,10.735 17.772,32.261 z m 73.917,-10.892 16.779,30.458 -10.184,35.397 -16.051,-29.136 z m -44.35,64.564 -15.493,-28.124 33.314,10.735 14.82,26.904 z m 12.505,-122.373 17.773,32.263 -9.456,36.718 -17.772,-32.262 z m -32.811,-59.561 18.738,34.014 -9.456,36.718 -18.737,-34.014 z m -26.529,47.176 18.737,34.013 -33.314,-10.735 -18.737,-34.013 z"
     id="path1501"
     style="fill:#278f1a;fill-opacity:1" /><path
     inkscape:connector-curvature="0"
     d="m 470.56989,227.43064 c -15.291,-29.281 -38.339,-51.747 -65.118,-66.125 -2.079,-1.116 -3.833,1.767 -1.938,3.186 16.217,12.149 30.002,28.263 39.758,47.836 30.327,60.845 10.269,134.866 -46.08,169.597 -52.65,32.451 -146.073,33.527 -187.233,-8.817 -12.382,-12.739 -31.595,-15.739 -46.893,-7.594 l -38.409,20.515 c -5.788,-4.572 -14.98,-6.056 -22.66401,-1.965 l -80.506996,44.175 c -9.979,5.313 -13.7349998,17.292 -8.422,27.271 l 11.036,20.727 c 5.313,9.979 17.57,13.967 27.549,8.654 l 80.506006,-44.175 c 7.186,-3.826 11.256,-11.096 10.993,-18.609 l 16.029,-8.599 c 15.032,-8.003 33.586,-5.466 46.019,6.777 167.9395,85.69443 330.01501,-49.56221 265.374,-192.854 z"
     id="path1497"
     style="fill:#373430;fill-opacity:1" /></svg>