<?xml version="1.0" encoding="UTF-8" standalone="no"?>
<svg
   xmlns:dc="http://purl.org/dc/elements/1.1/"
   xmlns:cc="http://creativecommons.org/ns#"
   xmlns:rdf="http://www.w3.org/1999/02/22-rdf-syntax-ns#"
   xmlns:svg="http://www.w3.org/2000/svg"
   xmlns="http://www.w3.org/2000/svg"
   xmlns:sodipodi="http://sodipodi.sourceforge.net/DTD/sodipodi-0.dtd"
   xmlns:inkscape="http://www.inkscape.org/namespaces/inkscape"
   id="ext-comp-1071_svgRoot"
   width="20"
   height="20"
   viewBox="0 0 20 20"
   style="display: block;"
   version="1.1"
   sodipodi:docname="p_e_seurannat.svg"
   inkscape:version="0.92.3 (2405546, 2018-03-11)">
  <metadata
     id="metadata5742">
    <rdf:RDF>
      <cc:Work
         rdf:about="">
        <dc:format>image/svg+xml</dc:format>
        <dc:type
           rdf:resource="http://purl.org/dc/dcmitype/StillImage" />
      </cc:Work>
    </rdf:RDF>
  </metadata>
  <sodipodi:namedview
     pagecolor="#ffffff"
     bordercolor="#666666"
     borderopacity="1"
     objecttolerance="10"
     gridtolerance="10"
     guidetolerance="10"
     inkscape:pageopacity="0"
     inkscape:pageshadow="2"
     inkscape:window-width="1078"
     inkscape:window-height="563"
     id="namedview5740"
     showgrid="false"
     inkscape:zoom="11.8"
     inkscape:cx="7.4244102"
     inkscape:cy="10"
     inkscape:window-x="198"
     inkscape:window-y="121"
     inkscape:window-maximized="0"
     inkscape:current-layer="ext-comp-1071_svgRoot" />
  <g
     id="ext-comp-1071_root"
     transform="matrix(1.4449605,0,0,1.3969105,-4.0385653,-3.8648085)"
     style="fill:#d8a467;fill-opacity:1">
    <g
       id="ext-comp-1071_vroot"
       style="fill:#d8a467;fill-opacity:1">
      <svg
         id="OpenLayers_Geometry_Point_1254"
         cx="10"
         cy="10"
         r="1"
         viewBox="-10 -10 30 30"
         width="36"
         height="36"
         x="-8"
         y="-8"
         version="1.1"
         style="fill:#d8a467;fill-opacity:1;stroke:#000000;stroke-width:0.83333331;stroke-linecap:butt;stroke-linejoin:round;stroke-opacity:1">
        <polygon
           points="6,10 4,10 4,6 0,6 0,4 4,4 4,0 6,0 6,4 10,4 10,6 6,6 "
           transform="rotate(45,5,5)"
           id="polygon5729"
           style="fill:#d8a467;fill-opacity:1" />
      </svg>
    </g>
    <g
       id="ext-comp-1071_troot"
       style="fill:#d8a467;fill-opacity:1" />
  </g>
  <defs
     id="ext-comp-1071_defs">
    <symbol
       id="ext-comp-1071-cross"
       viewBox="-10 -10 30 30">
      <polygon
         points="4 , 0 6 , 0 6 , 4 10 , 4 10 , 6 6 , 6 6 , 10 4 , 10 4 , 6 0 , 6 0 , 4 4 , 4 4 , 0"
         id="polygon5735" />
    </symbol>
  </defs>
</svg>
